<svg xmlns="http://www.w3.org/2000/svg" viewBox="0 0 900 300"
     class="iso intlBackslash odk" platform="gnu" theme="reach">

  <style><![CDATA[ {{ .style }} ]]></style>

  {{ .defs }}

  {{ .keys }}

  <g class="row_AE" text-anchor="middle">
    <g class="left">
      <g class="pinkyKey" finger="l5" id="Backquote" transform="translate(0)">
        <rect width="52" height="52" rx="5" ry="5"/>
        <g class="ansi key">
          <text class="level1" width="22" height="22" x="12.8" y="43.4">~</text>
          <text class="level2" width="22" height="22" x="12.8" y="20.6">¬</text>
          <text class="level3" width="22" height="22" x="38" y="43.4">₍</text>
          <text class="level4" width="22" height="22" x="38" y="20.6" />
          <g class="level5 diacritic deadKey">
            <text x="38.0" y="43.4" class="dk_mark">◌</text>
            <text x="38.0" y="43.4" class="dk_char">˜</text>
          </g>
        </g>
      </g>
      <g class="numberKey" finger="l5" id="Digit1" transform="translate(60)">
        <rect width="52" height="52" rx="5" ry="5" />
        <g class="key">
          <text class="level1" width="22" height="22" x="12.8" y="43.4">1</text>
          <text class="level2" width="22" height="22" x="12.8" y="20.6">#</text>
          <text class="level3" width="22" height="22" x="38" y="43.4">₁</text>
          <text class="level4" width="22" height="22" x="38" y="20.6">¹</text>
          <text class="level5" width="22" height="22" x="38" y="43.4">&amp;</text>
        </g>
      </g>
      <g class="numberKey" finger="l5" id="Digit2" transform="translate(120)">
        <rect width="52" height="52" rx="5" ry="5" />
        <g class="key">
          <text class="level1" width="22" height="22" x="12.8" y="43.4">2</text>
          <text class="level2" width="22" height="22" x="12.8" y="20.6">«</text>
          <text class="level3" width="22" height="22" x="38" y="43.4">₂</text>
          <text class="level4" width="22" height="22" x="38" y="20.6">²</text>
          <text class="level5" width="22" height="22" x="38" y="43.4">&lt;</text>
        </g>
      </g>
      <g class="numberKey" finger="l4" id="Digit3" transform="translate(180)">
        <rect width="52" height="52" rx="5" ry="5" />
        <g class="key">
          <text class="level1" width="22" height="22" x="12.8" y="43.4">3</text>
          <text class="level2" width="22" height="22" x="12.8" y="20.6">»</text>
          <text class="level3" width="22" height="22" x="38" y="43.4">₃</text>
          <text class="level4" width="22" height="22" x="38" y="20.6">³</text>
          <text class="level5" width="22" height="22" x="38" y="43.4">&gt;</text>
        </g>
      </g>
      <g class="numberKey" finger="l3" id="Digit4" transform="translate(240)">
        <rect width="52" height="52" rx="5" ry="5" />
        <g class="key">
          <text class="level1" width="22" height="22" x="12.8" y="43.4">4</text>
          <text class="level2" width="22" height="22" x="12.8" y="20.6">(</text>
          <text class="level3" width="22" height="22" x="38" y="43.4">₄</text>
          <text class="level4" width="22" height="22" x="38" y="20.6">⁴</text>
          <text class="level5" width="22" height="22" x="38" y="43.4">(</text>
        </g>
      </g>
      <g class="numberKey" finger="l2" id="Digit5" transform="translate(300)">
        <rect width="52" height="52" rx="5" ry="5" />
        <g class="key">
          <text class="level1" width="22" height="22" x="12.8" y="43.4">5</text>
          <text class="level2" width="22" height="22" x="12.8" y="20.6">)</text>
          <text class="level3" width="22" height="22" x="38" y="43.4">₅</text>
          <text class="level4" width="22" height="22" x="38" y="20.6">⁵</text>
          <text class="level5" width="22" height="22" x="38" y="43.4">)</text>
        </g>
      </g>
    </g>
    <g class="right">
      <g class="numberKey" finger="l2" id="Digit6" transform="translate(360)">
        <rect width="52" height="52" rx="5" ry="5" />
        <g class="key">
          <text class="level1" width="22" height="22" x="12.8" y="43.4">6</text>
          <text class="level2" width="22" height="22" x="12.8" y="20.6">@</text>
          <text class="level3" width="22" height="22" x="38" y="43.4">₆</text>
          <text class="level4" width="22" height="22" x="38" y="20.6">⁶</text>
          <text class="level5" width="22" height="22" x="38" y="43.4">@</text>
        </g>
      </g>
      <g class="numberKey" finger="r2" id="Digit7" transform="translate(420)">
        <rect width="52" height="52" rx="5" ry="5" />
        <g class="key">
          <text class="level1" width="22" height="22" x="12.8" y="43.4">7</text>
          <text class="level2" width="22" height="22" x="12.8" y="20.6">+</text>
          <text class="level3" width="22" height="22" x="38" y="43.4">₇</text>
          <text class="level4" width="22" height="22" x="38" y="20.6">⁷</text>
          <text class="level5" width="22" height="22" x="38" y="43.4">±</text>
        </g>
      </g>
      <g class="numberKey" finger="r2" id="Digit8" transform="translate(480)">
        <rect width="52" height="52" rx="5" ry="5" />
        <g class="key">
          <text class="level1" width="22" height="22" x="12.8" y="43.4">8</text>
          <text class="level2" width="22" height="22" x="12.8" y="20.6">^</text>
          <text class="level3" width="22" height="22" x="38" y="43.4">₈</text>
          <text class="level4" width="22" height="22" x="38" y="20.6">⁸</text>
          <g class="level5 diacritic deadKey">
            <text x="38.0" y="43.4" class="dk_mark">◌</text>
            <text x="38.0" y="43.4" class="dk_char">^</text>
          </g>
        </g>
      </g>
      <g class="numberKey" finger="r3" id="Digit9" transform="translate(540)">
        <rect width="52" height="52" rx="5" ry="5" />
        <g class="key">
          <text class="level1" width="22" height="22" x="12.8" y="43.4">9</text>
          <text class="level2" width="22" height="22" x="12.8" y="20.6">/</text>
          <text class="level3" width="22" height="22" x="38" y="43.4">₉</text>
          <text class="level4" width="22" height="22" x="38" y="20.6">⁹</text>
          <text class="level5" width="22" height="22" x="38" y="43.4">\</text>
        </g>
      </g>
      <g class="numberKey" finger="r4" id="Digit0" transform="translate(600)">
        <rect width="52" height="52" rx="5" ry="5" />
        <g class="key">
          <text class="level1" width="22" height="22" x="12.8" y="43.4">0</text>
          <text class="level2" width="22" height="22" x="12.8" y="20.6">*</text>
          <text class="level3" width="22" height="22" x="38" y="43.4">₀</text>
          <text class="level4" width="22" height="22" x="38" y="20.6">⁰</text>
          <text class="level5" width="22" height="22" x="38" y="43.4">°</text>
        </g>
      </g>
      <g class="pinkyKey" finger="r5" id="Minus" transform="translate(660)">
        <rect width="52" height="52" rx="5" ry="5" />
        <g class="key">
          <text class="level1" width="22" height="22" x="12.8" y="43.4">=</text>
          <g class="level2 non_diacritic deadKey">
            <text x="12.8" y="20.6" class="dk_mark">﹍</text>
            <text x="12.8" y="20.6" class="dk_char">α</text>
          </g>
          <text class="level3" width="22" height="22" x="38" y="43.4">₎</text>
          <text class="level4" width="22" height="22" x="38" y="20.6" />
          <text class="level5" width="22" height="22" x="38" y="43.4">≠</text>
        </g>
      </g>
      <g class="pinkyKey" finger="r5" id="Equal" transform="translate(720)">
        <rect width="52" height="52" rx="5" ry="5" />
        <g class="key">
          <text class="level1" width="22" height="22" x="12.8" y="43.4">%</text>
          <text class="level2" width="22" height="22" x="12.8" y="20.6">§</text>
          <text class="level3" width="22" height="22" x="38" y="43.4" />
          <text class="level4" width="22" height="22" x="38" y="20.6" />
          <text class="level5" width="22" height="22" x="38" y="43.4">‰</text>
        </g>
      </g>
      <g class="pinkyKey" finger="r5" id="IntlYen" transform="translate(780)">
        <rect width="52" height="52" rx="5" ry="5" />
        <g class="key" />
      </g>
    </g>
  </g>

  <g class="row_AD" text-anchor="middle">
    <g class="left">
      <g class="letterKey" finger="l5" id="KeyQ" transform="translate(90)">
        <rect width="52" height="52" rx="5" ry="5" />
        <g class="key">
          <text class="level1" width="22" height="22" x="12.8" y="43.4" />
          <text class="level2" width="22" height="22" x="12.8" y="20.6">B</text>
          <text class="level3" width="22" height="22" x="38" y="43.4">@</text>
          <text class="level4" width="22" height="22" x="38" y="20.6" />
          <text class="level5" width="22" height="22" x="38" y="43.4">â</text>
        </g>
      </g>
      <g class="letterKey" finger="l4" id="KeyW" transform="translate(150)">
        <rect width="52" height="52" rx="5" ry="5" />
        <g class="key">
          <text class="level1" width="22" height="22" x="12.8" y="43.4" />
          <text class="level2" width="22" height="22" x="12.8" y="20.6">M</text>
          <text class="level3" width="22" height="22" x="38" y="43.4">&lt;</text>
          <text class="level4" width="22" height="22" x="38" y="20.6">≤</text>
          <text class="level5" width="22" height="22" x="38" y="43.4">û</text>
        </g>
      </g>
      <g class="letterKey" finger="l3" id="KeyE" transform="translate(210)">
        <rect width="52" height="52" rx="5" ry="5" />
        <g class="key">
          <text class="level1" width="22" height="22" x="12.8" y="43.4" />
          <text class="level2" width="22" height="22" x="12.8" y="20.6">P</text>
          <text class="level3" width="22" height="22" x="38" y="43.4">&gt;</text>
          <text class="level4" width="22" height="22" x="38" y="20.6">≥</text>
          <text class="level5" width="22" height="22" x="38" y="43.4">î</text>
        </g>
      </g>
      <g class="letterKey" finger="l2" id="KeyR" transform="translate(270)">
        <rect width="52" height="52" rx="5" ry="5" />
        <g class="key">
          <text class="level1" width="22" height="22" x="12.8" y="43.4" />
          <text class="level2" width="22" height="22" x="12.8" y="20.6">O</text>
          <text class="level3" width="22" height="22" x="38" y="43.4">$</text>
          <g class="level4 non_diacritic deadKey">
            <text x="38.0" y="20.6" class="dk_mark">﹍</text>
            <text x="38.0" y="20.6" class="dk_char">¤</text>
          </g>
          <text class="level5" width="22" height="22" x="38" y="43.4">ô</text>
        </g>
      </g>
      <g class="letterKey" finger="l2" id="KeyT" transform="translate(330)">
        <rect width="52" height="52" rx="5" ry="5" />
        <g class="key">
          <text class="level1" width="22" height="22" x="12.8" y="43.4" />
          <text class="level2" width="22" height="22" x="12.8" y="20.6">W</text>
          <text class="level3" width="22" height="22" x="38" y="43.4">%</text>
          <text class="level4" width="22" height="22" x="38" y="20.6">‰</text>
          <text class="level5" width="22" height="22" x="38" y="43.4">œ</text>
        </g>
      </g>
    </g>
    <g class="right">
      <g class="letterKey" finger="r2" id="KeyY" transform="translate(390)">
        <rect width="52" height="52" rx="5" ry="5" />
        <g class="key">
          <text class="level1" width="22" height="22" x="12.8" y="43.4" />
          <text class="level2" width="22" height="22" x="12.8" y="20.6">Z</text>
          <text class="level3" width="22" height="22" x="38" y="43.4">^</text>
          <g class="level4 diacritic deadKey">
            <text x="38.0" y="20.6" class="dk_mark">◌</text>
            <text x="38.0" y="20.6" class="dk_char">^</text>
          </g>
          <text class="level5" width="22" height="22" x="38" y="43.4" />
        </g>
      </g>
      <g class="letterKey" finger="r2" id="KeyU" transform="translate(450)">
        <rect width="52" height="52" rx="5" ry="5" />
        <g class="key">
          <text class="level1" width="22" height="22" x="12.8" y="43.4" />
          <text class="level2" width="22" height="22" x="12.8" y="20.6">V</text>
          <text class="level3" width="22" height="22" x="38" y="43.4">&amp;</text>
          <text class="level4" width="22" height="22" x="38" y="20.6" />
          <text class="level5" width="22" height="22" x="38" y="43.4">ŭ</text>
        </g>
      </g>
      <g class="letterKey" finger="r3" id="KeyI" transform="translate(510)">
        <rect width="52" height="52" rx="5" ry="5" />
        <g class="key">
          <text class="level1" width="22" height="22" x="12.8" y="43.4" />
          <text class="level2" width="22" height="22" x="12.8" y="20.6">D</text>
          <text class="level3" width="22" height="22" x="38" y="43.4">*</text>
          <text class="level4" width="22" height="22" x="38" y="20.6">×</text>
          <text class="level5" width="22" height="22" x="38" y="43.4" />
        </g>
      </g>
      <g class="letterKey" finger="r4" id="KeyO" transform="translate(570)">
        <rect width="52" height="52" rx="5" ry="5" />
        <g class="key">
          <text class="level1" width="22" height="22" x="12.8" y="43.4" />
          <text class="level2" width="22" height="22" x="12.8" y="20.6">L</text>
          <text class="level3" width="22" height="22" x="38" y="43.4">'</text>
          <g class="level4 diacritic deadKey">
            <text x="38.0" y="20.6" class="dk_mark">◌</text>
            <text x="38.0" y="20.6" class="dk_char">´</text>
          </g>
          <text class="level5" width="22" height="22" x="38" y="43.4" />
        </g>
      </g>
      <g class="letterKey" finger="r5" id="KeyP" transform="translate(630)">
        <rect width="52" height="52" rx="5" ry="5" />
        <g class="key">
          <text class="level1" width="22" height="22" x="12.8" y="43.4" />
          <text class="level2" width="22" height="22" x="12.8" y="20.6">J</text>
          <text class="level3" width="22" height="22" x="38" y="43.4">`</text>
          <g class="level4 diacritic deadKey">
            <text x="38.0" y="20.6" class="dk_mark">◌</text>
            <text x="38.0" y="20.6" class="dk_char">`</text>
          </g>
          <text class="level5" width="22" height="22" x="38" y="43.4" />
        </g>
      </g>
      <g class="pinkyKey" finger="r5" id="BracketLeft" transform="translate(690)">
        <rect width="52" height="52" rx="5" ry="5" />
        <g class="key">
          <text class="level1" width="22" height="22" x="12.8" y="43.4">[</text>
          <text class="level2" width="22" height="22" x="12.8" y="20.6">{</text>
          <text class="level3" width="22" height="22" x="38" y="43.4" />
          <text class="level4" width="22" height="22" x="38" y="20.6" />
          <text class="level5" width="22" height="22" x="38" y="43.4" />
        </g>
      </g>
      <g class="pinkyKey" finger="r5" id="BracketRight" transform="translate(750)">
        <rect width="52" height="52" rx="5" ry="5" />
        <g class="key">
          <text class="level1" width="22" height="22" x="12.8" y="43.4">]</text>
          <text class="level2" width="22" height="22" x="12.8" y="20.6">}</text>
          <text class="level3" width="22" height="22" x="38" y="43.4" />
          <text class="level4" width="22" height="22" x="38" y="20.6" />
          <text class="level5" width="22" height="22" x="38" y="43.4" />
        </g>
      </g>
      <g class="pinkyKey" finger="r5" id="Backslash" transform="translate(810)">
        <rect class="ansi" width="82" height="52" rx="5" ry="5" />
        <rect class="iso ol60" width="52" height="52" rx="5" ry="5" />
        <g class="key">
          <text class="level1" width="22" height="22" x="12.8" y="43.4">$</text>
          <text class="level2" width="22" height="22" x="12.8" y="20.6">€</text>
          <g class="level3 non_diacritic deadKey">
            <text x="38" y="43.4" class="dk_mark">﹍</text>
            <text x="38" y="43.4" class="dk_char">¤</text>
          </g>
          <text class="level4" width="22" height="22" x="38" y="20.6" />
          <text class="level5" width="22" height="22" x="38" y="43.4">¢</text>
        </g>
      </g>
    </g>
  </g>

  <g class="row_AC" text-anchor="middle">
    <g class="left">
      <g class="letterKey homeKey" finger="l5" id="KeyA" transform="translate(105)">
        <rect width="52" height="52" rx="5" ry="5" />
        <g class="key">
          <text class="level1" width="22" height="22" x="12.8" y="43.4" />
          <text class="level2" width="22" height="22" x="12.8" y="20.6">A</text>
          <text class="level3" width="22" height="22" x="38" y="43.4">{</text>
          <text class="level4" width="22" height="22" x="38" y="20.6" />
          <text class="level5" width="22" height="22" x="38" y="43.4">à</text>
        </g>
      </g>
      <g class="letterKey homeKey" finger="l4" id="KeyS" transform="translate(165)">
        <rect width="52" height="52" rx="5" ry="5" />
        <g class="key">
          <text class="level1" width="22" height="22" x="12.8" y="43.4" />
          <text class="level2" width="22" height="22" x="12.8" y="20.6">U</text>
          <text class="level3" width="22" height="22" x="38" y="43.4">(</text>
          <text class="level4" width="22" height="22" x="38" y="20.6">⁽</text>
          <text class="level5" width="22" height="22" x="38" y="43.4">ù</text>
        </g>
      </g>
      <g class="letterKey homeKey" finger="l3" id="KeyD" transform="translate(225)">
        <rect width="52" height="52" rx="5" ry="5" />
        <g class="key">
          <text class="level1" width="22" height="22" x="12.8" y="43.4" />
          <text class="level2" width="22" height="22" x="12.8" y="20.6">I</text>
          <text class="level3" width="22" height="22" x="38" y="43.4">)</text>
          <text class="level4" width="22" height="22" x="38" y="20.6">⁾</text>
          <text class="level5" width="22" height="22" x="38" y="43.4">é</text>
        </g>
      </g>
      <g class="letterKey homeKey" finger="l2" id="KeyF" transform="translate(285)">
        <rect width="52" height="52" rx="5" ry="5" />
        <g class="key">
          <text class="level1" width="22" height="22" x="12.8" y="43.4" />
          <text class="level2" width="22" height="22" x="12.8" y="20.6">E</text>
          <text class="level3" width="22" height="22" x="38" y="43.4">}</text>
          <text class="level4" width="22" height="22" x="38" y="20.6" />
          <text class="level5" width="22" height="22" x="38" y="43.4">è</text>
        </g>
      </g>
      <g class="letterKey" finger="l2" id="KeyG" transform="translate(345)">
        <rect width="52" height="52" rx="5" ry="5" />
        <g class="key">
          <text class="level1" width="22" height="22" x="12.8" y="43.4">,</text>
          <text class="level2" width="22" height="22" x="12.8" y="20.6">;</text>
          <text class="level3" width="22" height="22" x="38" y="43.4">=</text>
          <text class="level4" width="22" height="22" x="38" y="20.6">≠</text>
          <text class="level5" width="22" height="22" x="38" y="43.4">ê</text>
        </g>
      </g>
    </g>
    <g class="right">
      <g class="letterKey" finger="r2" id="KeyH" transform="translate(405)">
        <rect width="52" height="52" rx="5" ry="5" />
        <g class="key">
          <text class="level1" width="22" height="22" x="12.8" y="43.4" />
          <text class="level2" width="22" height="22" x="12.8" y="20.6">C</text>
          <text class="level3" width="22" height="22" x="38" y="43.4">\</text>
          <g class="level4 diacritic deadKey">
            <text x="38.0" y="20.6" class="dk_mark">◌</text>
            <text x="38.0" y="20.6" class="dk_char">/</text>
          </g>
          <text class="level5" width="22" height="22" x="38" y="43.4">ç</text>
        </g>
      </g>
      <g class="letterKey homeKey" finger="r2" id="KeyJ" transform="translate(465)">
        <rect width="52" height="52" rx="5" ry="5" />
        <g class="key">
          <text class="level1" width="22" height="22" x="12.8" y="43.4" />
          <text class="level2" width="22" height="22" x="12.8" y="20.6">T</text>
          <text class="level3" width="22" height="22" x="38" y="43.4">+</text>
          <text class="level4" width="22" height="22" x="38" y="20.6">±</text>
          <text class="level5" width="22" height="22" x="38" y="43.4">™</text>
        </g>
      </g>
      <g class="letterKey homeKey" finger="r3" id="KeyK" transform="translate(525)">
        <rect width="52" height="52" rx="5" ry="5" />
        <g class="key">
          <text class="level1" width="22" height="22" x="12.8" y="43.4" />
          <text class="level2" width="22" height="22" x="12.8" y="20.6">S</text>
          <text class="level3" width="22" height="22" x="38" y="43.4">-</text>
          <text class="level4" width="22" height="22" x="38" y="20.6">—</text>
          <text class="level5" width="22" height="22" x="38" y="43.4">ß</text>
        </g>
      </g>
      <g class="letterKey homeKey" finger="r4" id="KeyL" transform="translate(585)">
        <rect width="52" height="52" rx="5" ry="5" />
        <g class="key">
          <text class="level1" width="22" height="22" x="12.8" y="43.4" />
          <text class="level2" width="22" height="22" x="12.8" y="20.6">R</text>
          <text class="level3" width="22" height="22" x="38" y="43.4">/</text>
          <text class="level4" width="22" height="22" x="38" y="20.6">÷</text>
          <text class="level5" width="22" height="22" x="38" y="43.4">®</text>
        </g>
      </g>
      <g class="letterKey homeKey" finger="r5" id="Semicolon" transform="translate(645)">
        <rect width="52" height="52" rx="5" ry="5" />
        <g class="key">
          <text class="level1" width="22" height="22" x="12.8" y="43.4" />
          <text class="level2" width="22" height="22" x="12.8" y="20.6">N</text>
          <text class="level3" width="22" height="22" x="38" y="43.4">"</text>
          <g class="level4 diacritic deadKey">
            <text x="38.0" y="20.6" class="dk_mark">◌</text>
            <text x="38.0" y="20.6" class="dk_char">¨</text>
          </g>
          <text class="level5" width="22" height="22" x="38" y="43.4">ñ</text>
        </g>
      </g>
      <g class="pinkyKey" finger="r5" id="Quote" transform="translate(705)">
        <rect width="52" height="52" rx="5" ry="5" />
        <g class="key">
          <text class="level1" width="22" height="22" x="12.8" y="43.4">'</text>
          <text class="level2" width="22" height="22" x="12.8" y="20.6">"</text>
          <text class="level3" width="22" height="22" x="38" y="43.4" />
          <text class="level4" width="22" height="22" x="38" y="20.6" />
          <text class="level5" width="22" height="22" x="38" y="43.4">`</text>
        </g>
      </g>
    </g>
  </g>

  <g class="row_AB" text-anchor="middle">
    <g class="left">
      <g class="pinkyKey" finger="l5" id="IntlBackslash" transform="translate(75)">
        <rect width="52" height="52" rx="5" ry="5" />
        <g class="key">
          <text class="level1" width="22" height="22" x="12.8" y="43.4">/</text>
          <text class="level2" width="22" height="22" x="12.8" y="20.6">\</text>
          <text class="level3" width="22" height="22" x="38" y="43.4" />
          <text class="level4" width="22" height="22" x="38" y="20.6" />
          <text class="level5" width="22" height="22" x="38" y="43.4">|</text>
        </g>
      </g>
      <g class="letterKey" finger="l5" id="KeyZ" transform="translate(135)">
        <rect width="52" height="52" rx="5" ry="5" />
        <g class="key">
          <text class="level1" width="22" height="22" x="12.8" y="43.4">-</text>
          <text class="level2" width="22" height="22" x="12.8" y="20.6">!</text>
          <text class="level3" width="22" height="22" x="38" y="43.4">~</text>
          <g class="level4 diacritic deadKey">
            <text x="38.0" y="20.6" class="dk_mark">◌</text>
            <text x="38.0" y="20.6" class="dk_char">˜</text>
          </g>
          <text class="level5" width="22" height="22" x="38" y="43.4">—</text>
        </g>
      </g>
      <g class="letterKey" finger="l4" id="KeyX" transform="translate(195)">
        <rect width="52" height="52" rx="5" ry="5" />
        <g class="key">
          <text class="level1" width="22" height="22" x="12.8" y="43.4" />
          <text class="level2" width="22" height="22" x="12.8" y="20.6">Y</text>
          <text class="level3" width="22" height="22" x="38" y="43.4">[</text>
          <text class="level4" width="22" height="22" x="38" y="20.6" />
          <text class="level5" width="22" height="22" x="38" y="43.4">ŷ</text>
        </g>
      </g>
      <g class="letterKey" finger="l3" id="KeyC" transform="translate(255)">
        <rect width="52" height="52" rx="5" ry="5" />
        <g class="key">
          <text class="level1" width="22" height="22" x="12.8" y="43.4" />
          <text class="level2" width="22" height="22" x="12.8" y="20.6">X</text>
          <text class="level3" width="22" height="22" x="38" y="43.4">]</text>
          <text class="level4" width="22" height="22" x="38" y="20.6" />
          <text class="level5" width="22" height="22" x="38" y="43.4">_</text>
        </g>
      </g>
      <g class="letterKey" finger="l2" id="KeyV" transform="translate(315)">
        <rect width="52" height="52" rx="5" ry="5" />
        <g class="key">
          <text class="level1" width="22" height="22" x="12.8" y="43.4">.</text>
          <text class="level2" width="22" height="22" x="12.8" y="20.6">:</text>
          <text class="level3" width="22" height="22" x="38" y="43.4">_</text>
          <text class="level4" width="22" height="22" x="38" y="20.6">–</text>
          <text class="level5" width="22" height="22" x="38" y="43.4">…</text>
        </g>
      </g>
      <g class="letterKey" finger="l2" id="KeyB" transform="translate(375)">
        <rect width="52" height="52" rx="5" ry="5" />
        <g class="key">
          <text class="level1" width="22" height="22" x="12.8" y="43.4" />
          <text class="level2" width="22" height="22" x="12.8" y="20.6">K</text>
          <text class="level3" width="22" height="22" x="38" y="43.4">#</text>
          <text class="level4" width="22" height="22" x="38" y="20.6" />
          <text class="level5" width="22" height="22" x="38" y="43.4">æ</text>
        </g>
      </g>
    </g>
    <g class="right">
      <g class="letterKey" finger="r2" id="KeyN" transform="translate(435)">
        <rect width="52" height="52" rx="5" ry="5" />
        <g class="key">
          <g class="level1 non_diacritic deadKey">
            <text x="12.8" y="43.4" class="dk_mark">﹍</text>
            <text x="12.8" y="43.4" class="dk_char">★</text>
          </g>
          <text class="level2" width="22" height="22" x="12.8" y="20.6">?</text>
          <text class="level3" width="22" height="22" x="38" y="43.4">|</text>
          <text class="level4" width="22" height="22" x="38" y="20.6">¦</text>
          <g class="level5 diacritic deadKey">
            <text x="38.0" y="43.4" class="dk_mark">◌</text>
            <text x="38.0" y="43.4" class="dk_char">¨</text>
          </g>
        </g>
      </g>
      <g class="letterKey" finger="r2" id="KeyM" transform="translate(495)">
        <rect width="52" height="52" rx="5" ry="5" />
        <g class="key">
          <text class="level1" width="22" height="22" x="12.8" y="43.4" />
          <text class="level2" width="22" height="22" x="12.8" y="20.6">Q</text>
          <text class="level3" width="22" height="22" x="38" y="43.4">!</text>
          <text class="level4" width="22" height="22" x="38" y="20.6">¬</text>
          <text class="level5" width="22" height="22" x="38" y="43.4">–</text>
        </g>
      </g>
      <g class="letterKey" finger="r3" id="Comma" transform="translate(555)">
        <rect width="52" height="52" rx="5" ry="5" />
        <g class="key">
          <text class="level1" width="22" height="22" x="12.8" y="43.4" />
          <text class="level2" width="22" height="22" x="12.8" y="20.6">G</text>
          <text class="level3" width="22" height="22" x="38" y="43.4">;</text>
          <g class="level4 diacritic deadKey">
            <text x="38.0" y="20.6" class="dk_mark">◌</text>
            <text x="38.0" y="20.6" class="dk_char">¸</text>
          </g>
          <text class="level5" width="22" height="22" x="38" y="43.4">µ</text>
        </g>
      </g>
      <g class="letterKey" finger="r4" id="Period" transform="translate(615)">
        <rect width="52" height="52" rx="5" ry="5" />
        <g class="key">
          <text class="level1" width="22" height="22" x="12.8" y="43.4" />
          <text class="level2" width="22" height="22" x="12.8" y="20.6">H</text>
          <text class="level3" width="22" height="22" x="38" y="43.4">:</text>
          <text class="level4" width="22" height="22" x="38" y="20.6" />
          <text class="level5" width="22" height="22" x="38" y="43.4">©</text>
        </g>
      </g>
      <g class="letterKey" finger="r5" id="Slash" transform="translate(675)">
        <rect width="52" height="52" rx="5" ry="5" />
        <g class="key">
          <text class="level1" width="22" height="22" x="12.8" y="43.4" />
          <text class="level2" width="22" height="22" x="12.8" y="20.6">F</text>
          <text class="level3" width="22" height="22" x="38" y="43.4">?</text>
          <text class="level4" width="22" height="22" x="38" y="20.6" />
          <text class="level5" width="22" height="22" x="38" y="43.4" />
        </g>
      </g>
    </g>
  </g>

  <g class="row_AA" text-anchor="middle">
    <g id="Space" class="homeKey" transform="translate(225)">
      <rect width="367" height="52" class="ansi" rx="5" ry="5"/>
      <rect width="292" height="52" class="ol60" rx="5" ry="5"/>
      <rect width="232" height="52" class="ol40" rx="5" ry="5"/>
      <g class="key" text-anchor="start">
        <text x="10" y="43.4" class="level1">espace</text>
        <text x="10" y="20.6" class="level2">insécable fine</text>
      </g>
      <g class="key level3" text-anchor="end">
        <text x="357" y="43.4" class="ansi">espace</text>
        <text x="282" y="43.4" class="ol60">espace</text>
        <text x="222" y="43.4" class="ol40">espace</text>
      </g>
      <g class="key level4" text-anchor="end">
        <text x="357" y="20.6" class="ansi">espace insécable</text>
        <text x="282" y="20.6" class="ol60">insécable</text>
        <text x="222" y="20.6" class="ol40">insécable</text>
      </g>
      <g class="key level5" text-anchor="end">
        <text x="357" y="43.4" class="ansi">apostrophe typo (’)</text>
        <text x="282" y="43.4" class="ol60">apostrophe (’)</text>
        <text x="222" y="43.4" class="ol40">apostrophe (’)</text>
      </g>
    </g>
  </g>
</svg>
