<svg xmlns="http://www.w3.org/2000/svg" viewBox="0 0 900 300"
     class="iso intlBackslash odk" platform="gnu" theme="reach">

  <style><![CDATA[ {{ .style }} ]]></style>

  {{ .defs }}

  {{ .keys }}

  <g class="row_AE" text-anchor="middle">
    <g class="left">
      <g id="Backquote" class="pinkyKey">
        <rect width="52" height="52" rx="5" ry="5"></rect>
        <g class="ansi key">
          <text x="12.8" y="43.4" class="level1">`</text>
          <text x="12.8" y="20.6" class="level2">~</text>
        </g>
      </g>
      <g id="Digit1" class="numberKey" transform="translate(60)">
        <rect width="52" height="52" rx="5" ry="5"/>
        <g class="key">
          <text x="12.8" y="43.4" class="level1">1</text>
          <text x="12.8" y="20.6" class="level2">!</text>
          <text x="38.0" y="43.4" class="level3">₁</text>
          <text x="38.0" y="20.6" class="level4">¹</text>
        </g>
      </g>
      <g id="Digit2" class="numberKey" transform="translate(120)">
        <rect width="52" height="52" rx="5" ry="5"/>
        <g class="key">
          <text x="12.8" y="43.4" class="level1">2</text>
          <text x="12.8" y="20.6" class="level2">@</text>
          <text x="38.0" y="43.4" class="level3">₂</text>
          <text x="38.0" y="20.6" class="level4">²</text>
          <text x="38.0" y="43.4" class="level5">«</text>
        </g>
      </g>
      <g id="Digit3" class="numberKey" transform="translate(180)">
        <rect width="52" height="52" rx="5" ry="5"/>
        <g class="key">
          <text x="12.8" y="43.4" class="level1">3</text>
          <text x="12.8" y="20.6" class="level2">#</text>
          <text x="38.0" y="43.4" class="level3">₃</text>
          <text x="38.0" y="20.6" class="level4">³</text>
          <text x="38.0" y="43.4" class="level5">»</text>
        </g>
      </g>
      <g id="Digit4" class="numberKey" transform="translate(240)">
        <rect width="52" height="52" rx="5" ry="5"/>
        <g class="key">
          <text x="12.8" y="43.4" class="level1">4</text>
          <text x="12.8" y="20.6" class="level2">$</text>
          <text x="38.0" y="43.4" class="level3">₄</text>
          <text x="38.0" y="20.6" class="level4">⁴</text>
        </g>
      </g>
      <g id="Digit5" class="numberKey" transform="translate(300)">
        <rect width="52" height="52" rx="5" ry="5"/>
        <g class="key">
          <text x="12.8" y="43.4" class="level1">5</text>
          <text x="12.8" y="20.6" class="level2">%</text>
          <text x="38.0" y="43.4" class="level3">₅</text>
          <text x="38.0" y="20.6" class="level4">⁵</text>
          <text x="38.0" y="43.4" class="level5">€</text>
        </g>
      </g>
    </g>
    <g class="right">
      <g id="Digit6" class="numberKey" transform="translate(360)">
        <rect width="52" height="52" rx="5" ry="5"/>
        <g class="key">
          <text x="12.8" y="43.4" class="level1">6</text>
          <text x="12.8" y="20.6" class="level2">^</text>
          <text x="38.0" y="43.4" class="level3">₆</text>
          <text x="38.0" y="20.6" class="level4">⁶</text>
        </g>
      </g>
      <g id="Digit7" class="numberKey" transform="translate(420)">
        <rect width="52" height="52" rx="5" ry="5"/>
        <g class="key">
          <text x="12.8" y="43.4" class="level1">7</text>
          <text x="12.8" y="20.6" class="level2">&amp;</text>
          <text x="38.0" y="43.4" class="level3">₇</text>
          <text x="38.0" y="20.6" class="level4">⁷</text>
        </g>
      </g>
      <g id="Digit8" class="numberKey" transform="translate(480)">
        <rect width="52" height="52" rx="5" ry="5"/>
        <g class="key">
          <text x="12.8" y="43.4" class="level1">8</text>
          <text x="12.8" y="20.6" class="level2">*</text>
          <text x="38.0" y="43.4" class="level3">₈</text>
          <text x="38.0" y="20.6" class="level4">⁸</text>
        </g>
      </g>
      <g id="Digit9" class="numberKey" transform="translate(540)">
        <rect width="52" height="52" rx="5" ry="5"/>
        <g class="key">
          <text x="12.8" y="43.4" class="level1">9</text>
          <text x="12.8" y="20.6" class="level2">(</text>
          <text x="38.0" y="43.4" class="level3">₉</text>
          <text x="38.0" y="20.6" class="level4">⁹</text>
        </g>
      </g>
      <g id="Digit0" class="numberKey" transform="translate(600)">
        <rect width="52" height="52" rx="5" ry="5"/>
        <g class="key">
          <text x="12.8" y="43.4" class="level1">0</text>
          <text x="12.8" y="20.6" class="level2">)</text>
          <text x="38.0" y="43.4" class="level3">₀</text>
          <text x="38.0" y="20.6" class="level4">⁰</text>
          <text x="38.0" y="43.4" class="level5">°</text>
        </g>
      </g>
      <g id="Minus" class="pinkyKey" transform="translate(660)">
        <rect width="52" height="52" rx="5" ry="5"/>
        <g class="key">
          <text x="12.8" y="43.4" class="level1">-</text>
          <text x="12.8" y="20.6" class="level2">_</text>
        </g>
      </g>
      <g id="Equal" class="pinkyKey" transform="translate(720)">
        <rect width="52" height="52" rx="5" ry="5"/>
        <g class="key">
          <text x="12.8" y="43.4" class="level1">=</text>
          <text x="12.8" y="20.6" class="level2">+</text>
        </g>
      </g>
    </g>
  </g>

  <g class="row_AD" text-anchor="middle">
    <g class="left">
      <g id="KeyQ" class="letterKey" transform="translate(90)">
        <rect width="52" height="52" rx="5" ry="5"/>
        <g class="key">
          <text x="12.8" y="20.6" class="level2">Q</text>
          <text x="38.0" y="43.4" class="level3">^</text>
          <g class="level4 diacritic deadKey">
            <text x="38.0" y="20.6" class="dk_mark">◌</text>
            <text x="38.0" y="20.6" class="dk_char">^</text>
          </g>
          <text x="38.0" y="43.4" class="level5"> </text>
        </g>
      </g>
      <g id="KeyW" class="letterKey" transform="translate(150)">
        <rect width="52" height="52" rx="5" ry="5"/>
        <g class="key">
          <text x="12.8" y="20.6" class="level2">W</text>
          <text x="38.0" y="43.4" class="level3">&lt;</text>
          <text x="38.0" y="20.6" class="level4">≤</text>
          <text x="38.0" y="43.4" class="level5">é</text>
        </g>
      </g>
      <g id="KeyE" class="letterKey" transform="translate(210)">
        <rect width="52" height="52" rx="5" ry="5"/>
        <g class="key">
          <text x="12.8" y="20.6" class="level2">E</text>
          <text x="38.0" y="43.4" class="level3">&gt;</text>
          <text x="38.0" y="20.6" class="level4">≥</text>
          <text x="38.0" y="43.4" class="level5">è</text>
        </g>
      </g>
      <g id="KeyR" class="letterKey" transform="translate(270)">
        <rect width="52" height="52" rx="5" ry="5"/>
        <g class="key">
          <text x="12.8" y="20.6" class="level2">R</text>
          <text x="38.0" y="43.4" class="level3">$</text>
          <g class="level4 diacritic deadKey">
            <text x="38.0" y="20.6" class="dk_mark">◌</text>
            <text x="38.0" y="20.6" class="dk_char">¤</text>
          </g>
        </g>
      </g>
      <g id="KeyT" class="letterKey" transform="translate(330)">
        <rect width="52" height="52" rx="5" ry="5"/>
        <g class="key">
          <text x="12.8" y="20.6" class="level2">T</text>
          <text x="38.0" y="43.4" class="level3">%</text>
          <text x="38.0" y="20.6" class="level4">‰</text>
        </g>
      </g>
    </g>
    <g class="right">
      <g id="KeyY" class="letterKey" transform="translate(390)">
        <rect width="52" height="52" rx="5" ry="5"/>
        <g class="key">
          <text x="12.8" y="20.6" class="level2">Y</text>
          <text x="38.0" y="43.4" class="level3">@</text>
          <g class="level4 diacritic deadKey">
            <text x="38.0" y="20.6" class="dk_mark">◌</text>
            <text x="38.0" y="20.6" class="dk_char">°</text>
          </g>
        </g>
      </g>
      <g id="KeyU" class="letterKey" transform="translate(450)">
        <rect width="52" height="52" rx="5" ry="5"/>
        <g class="key">
          <text x="12.8" y="20.6" class="level2">U</text>
          <text x="38.0" y="43.4" class="level3">&amp;</text>
          <text x="38.0" y="43.4" class="level5">ù</text>
        </g>
      </g>
      <g id="KeyI" class="letterKey" transform="translate(510)">
        <rect width="52" height="52" rx="5" ry="5"/>
        <g class="key">
          <text x="12.8" y="20.6" class="level2">I</text>
          <text x="38.0" y="43.4" class="level3">*</text>
          <text x="38.0" y="20.6" class="level4">×</text>
        </g>
      </g>
      <g id="KeyO" class="letterKey" transform="translate(570)">
        <rect width="52" height="52" rx="5" ry="5"/>
        <g class="key">
          <text x="12.8" y="20.6" class="level2">O</text>
          <text x="38.0" y="43.4" class="level3">'</text>
          <g class="level4 diacritic deadKey">
            <text x="38.0" y="20.6" class="dk_mark">◌</text>
            <text x="38.0" y="20.6" class="dk_char">´</text>
          </g>
          <text x="38.0" y="43.4" class="level5">œ</text>
        </g>
      </g>
      <g id="KeyP" class="letterKey" transform="translate(630)">
        <rect width="52" height="52" rx="5" ry="5"/>
        <g class="key">
          <text x="12.8" y="20.6" class="level2">P</text>
          <text x="38.0" y="43.4" class="level3">`</text>
          <g class="level4 diacritic deadKey">
            <text x="38.0" y="20.6" class="dk_mark">◌</text>
            <text x="38.0" y="20.6" class="dk_char">`</text>
          </g>
        </g>
      </g>
      <g id="BracketLeft" class="pinkyKey" transform="translate(690)">
        <rect width="52" height="52" rx="5" ry="5"/>
        <g class="key">
          <text x="12.8" y="43.4" class="level1">[</text>
          <text x="12.8" y="20.6" class="level2">{</text>
        </g>
      </g>
      <g id="BracketRight" class="pinkyKey" transform="translate(750)">
        <rect width="52" height="52" rx="5" ry="5"/>
        <g class="key">
          <text x="12.8" y="43.4" class="level1">]</text>
          <text x="12.8" y="20.6" class="level2">}</text>
        </g>
      </g>
      <g id="Backslash" class="pinkyKey" transform="translate(810)">
        <rect width="82" height="52" class="ansi" rx="5" ry="5"/>
        <rect width="52" height="52" class="iso ol60" rx="5" ry="5"/>
        <g class="key">
          <text x="12.8" y="43.4" class="level1">\</text>
          <text x="12.8" y="20.6" class="level2">|</text>
        </g>
      </g>
    </g>
  </g>

  <g class="row_AC" text-anchor="middle">
    <g class="left">
      <g id="KeyA" class="letterKey homeKey" transform="translate(105)">
        <rect width="52" height="52" rx="5" ry="5"/>
        <g class="key">
          <text x="12.8" y="20.6" class="level2">A</text>
          <text x="38.0" y="43.4" class="level3">{</text>
          <g class="level4 diacritic deadKey">
            <text x="38.0" y="20.6" class="dk_mark">◌</text>
            <text x="38.0" y="20.6" class="dk_char">ˇ</text>
          </g>
          <text x="38.0" y="43.4" class="level5">à</text>
        </g>
      </g>
      <g id="KeyS" class="letterKey homeKey" transform="translate(165)">
        <rect width="52" height="52" rx="5" ry="5"/>
        <g class="key">
          <text x="12.8" y="20.6" class="level2">S</text>
          <text x="38.0" y="43.4" class="level3">(</text>
          <text x="38.0" y="20.6" class="level4">⁽</text>
        </g>
      </g>
      <g id="KeyD" class="letterKey homeKey" transform="translate(225)">
        <rect width="52" height="52" rx="5" ry="5"/>
        <g class="key">
          <text x="12.8" y="20.6" class="level2">D</text>
          <text x="38.0" y="43.4" class="level3">)</text>
          <text x="38.0" y="20.6" class="level4">⁾</text>
          <text x="38.0" y="43.4" class="level5">ê</text>
        </g>
      </g>
      <g id="KeyF" class="letterKey homeKey" transform="translate(285)">
        <rect width="52" height="52" rx="5" ry="5"/>
        <g class="key">
          <text x="12.8" y="20.6" class="level2">F</text>
          <text x="38.0" y="43.4" class="level3">}</text>
          <g class="level4 diacritic deadKey">
            <text x="38.0" y="20.6" class="dk_mark">◌</text>
            <text x="38.0" y="20.6" class="dk_char">˙</text>
          </g>
        </g>
      </g>
      <g id="KeyG" class="letterKey" transform="translate(345)">
        <rect width="52" height="52" rx="5" ry="5"/>
        <g class="key">
          <text x="12.8" y="20.6" class="level2">G</text>
          <text x="38.0" y="43.4" class="level3">=</text>
          <text x="38.0" y="20.6" class="level4">≠</text>
        </g>
      </g>
    </g>
    <g class="right">
      <g id="KeyH" class="letterKey" transform="translate(405)">
        <rect width="52" height="52" rx="5" ry="5"/>
        <g class="key">
          <text x="12.8" y="20.6" class="level2">H</text>
          <text x="38.0" y="43.4" class="level3">\</text>
          <g class="level4 diacritic deadKey">
            <text x="38.0" y="20.6" class="dk_mark">◌</text>
            <text x="38.0" y="20.6" class="dk_char">/</text>
          </g>
          <text x="38.0" y="43.4" class="level5"> </text>
        </g>
      </g>
      <g id="KeyJ" class="letterKey homeKey" transform="translate(465)">
        <rect width="52" height="52" rx="5" ry="5"/>
        <g class="key">
          <text x="12.8" y="20.6" class="level2">J</text>
          <text x="38.0" y="43.4" class="level3">+</text>
          <text x="38.0" y="20.6" class="level4">±</text>
          <text x="38.0" y="43.4" class="level5">û</text>
        </g>
      </g>
      <g id="KeyK" class="letterKey homeKey" transform="translate(525)">
        <rect width="52" height="52" rx="5" ry="5"/>
        <g class="key">
          <text x="12.8" y="20.6" class="level2">K</text>
          <text x="38.0" y="43.4" class="level3">-</text>
          <g class="level4 diacritic deadKey">
            <text x="38.0" y="20.6" class="dk_mark">◌</text>
            <text x="38.0" y="20.6" class="dk_char">¯</text>
          </g>
          <text x="38.0" y="43.4" class="level5">î</text>
        </g>
      </g>
      <g id="KeyL" class="letterKey homeKey" transform="translate(585)">
        <rect width="52" height="52" rx="5" ry="5"/>
        <g class="key">
          <text x="12.8" y="20.6" class="level2">L</text>
          <text x="38.0" y="43.4" class="level3">/</text>
          <text x="38.0" y="20.6" class="level4">÷</text>
          <text x="38.0" y="43.4" class="level5">ô</text>
        </g>
      </g>
      <g id="Semicolon" class="letterKey homeKey" transform="translate(645)">
        <rect width="52" height="52" rx="5" ry="5"/>
        <g class="key">
          <g class="level2 non_diacritic deadKey">
            <text x="12.8" y="20.6" class="dk_mark">﹍</text>
            <text x="12.8" y="20.6" class="dk_char">★</text>
          </g>
          <text x="38.0" y="43.4" class="level3">&quot;</text>
          <g class="level4 diacritic deadKey">
            <text x="38.0" y="20.6" class="dk_mark">◌</text>
            <text x="38.0" y="20.6" class="dk_char">¨</text>
          </g>
          <g class="level5 diacritic deadKey">
            <text x="38.0" y="43.4" class="dk_mark">◌</text>
            <text x="38.0" y="43.4" class="dk_char">¨</text>
          </g>
        </g>
      </g>
      <g id="Quote" class="pinkyKey" transform="translate(705)">
        <rect width="52" height="52" rx="5" ry="5"/>
        <g class="key">
          <text x="12.8" y="43.4" class="level1">&apos;</text>
          <text x="12.8" y="20.6" class="level2">&quot;</text>
        </g>
      </g>
    </g>
  </g>

  <g class="row_AB" text-anchor="middle">
    <g class="left">
      <g id="IntlBackslash" class="pinkyKey" transform="translate(75)">
        <rect width="52" height="52" rx="5" ry="5"/>
        <g class="key">
          <text x="12.8" y="43.4" class="level1">&lt;</text>
          <text x="12.8" y="20.6" class="level2">&gt;</text>
        </g>
      </g>
      <g id="KeyZ" class="letterKey" transform="translate(135)">
        <rect width="52" height="52" rx="5" ry="5"/>
        <g class="key">
          <text x="12.8" y="20.6" class="level2">Z</text>
          <text x="38.0" y="43.4" class="level3">~</text>
          <g class="level4 diacritic deadKey">
            <text x="38.0" y="20.6" class="dk_mark">◌</text>
            <text x="38.0" y="20.6" class="dk_char">˜</text>
          </g>
          <text x="38.0" y="43.4" class="level5">â</text>
        </g>
      </g>
      <g id="KeyX" class="letterKey" transform="translate(195)">
        <rect width="52" height="52" rx="5" ry="5"/>
        <g class="key">
          <text x="12.8" y="20.6" class="level2">X</text>
          <text x="38.0" y="43.4" class="level3">[</text>
          <g class="level4 diacritic deadKey">
            <text x="38.0" y="20.6" class="dk_mark">◌</text>
            <text x="38.0" y="20.6" class="dk_char">,</text>
          </g>
        </g>
      </g>
      <g id="KeyC" class="letterKey" transform="translate(255)">
        <rect width="52" height="52" rx="5" ry="5"/>
        <g class="key">
          <text x="12.8" y="20.6" class="level2">C</text>
          <text x="38.0" y="43.4" class="level3">]</text>
          <g class="level4 diacritic deadKey">
            <text x="38.0" y="20.6" class="dk_mark">◌</text>
            <text x="38.0" y="20.6" class="dk_char">˛</text>
          </g>
          <text x="38.0" y="43.4" class="level5">ç</text>
        </g>
      </g>
      <g id="KeyV" class="letterKey" transform="translate(315)">
        <rect width="52" height="52" rx="5" ry="5"/>
        <g class="key">
          <text x="12.8" y="20.6" class="level2">V</text>
          <text x="38.0" y="43.4" class="level3">_</text>
          <text x="38.0" y="20.6" class="level4">–</text>
        </g>
      </g>
      <g id="KeyB" class="letterKey" transform="translate(375)">
        <rect width="52" height="52" rx="5" ry="5"/>
        <g class="key">
          <text x="12.8" y="20.6" class="level2">B</text>
          <text x="38.0" y="43.4" class="level3">#</text>
        </g>
      </g>
    </g>
    <g class="right">
      <g id="KeyN" class="letterKey" transform="translate(435)">
        <rect width="52" height="52" rx="5" ry="5"/>
        <g class="key">
          <text x="12.8" y="20.6" class="level2">N</text>
          <text x="38.0" y="43.4" class="level3">|</text>
          <text x="38.0" y="20.6" class="level4">¦</text>
        </g>
      </g>
      <g id="KeyM" class="letterKey" transform="translate(495)">
        <rect width="52" height="52" rx="5" ry="5"/>
        <g class="key">
          <text x="12.8" y="20.6" class="level2">M</text>
          <text x="38.0" y="43.4" class="level3">!</text>
          <text x="38.0" y="20.6" class="level4">¬</text>
          <text x="38.0" y="43.4" class="level5">µ</text>
        </g>
      </g>
      <g id="Comma" class="letterKey" transform="translate(555)">
        <rect width="52" height="52" rx="5" ry="5"/>
        <g class="key">
          <text x="12.8" y="43.4" class="level1">,</text>
          <text x="12.8" y="20.6" class="level2">;</text>
          <text x="38.0" y="43.4" class="level3">;</text>
          <g class="level4 diacritic deadKey">
            <text x="38.0" y="20.6" class="dk_mark">◌</text>
            <text x="38.0" y="20.6" class="dk_char">¸</text>
          </g>
          <text x="38.0" y="43.4" class="level5">·</text>
        </g>
      </g>
      <g id="Period" class="letterKey" transform="translate(615)">
        <rect width="52" height="52" rx="5" ry="5"/>
        <g class="key">
          <text x="12.8" y="43.4" class="level1">.</text>
          <text x="12.8" y="20.6" class="level2">:</text>
          <text x="38.0" y="43.4" class="level3">:</text>
          <text x="38.0" y="43.4" class="level5">…</text>
        </g>
      </g>
      <g id="Slash" class="letterKey" transform="translate(675)">
        <rect width="52" height="52" rx="5" ry="5"/>
        <g class="key">
          <text x="12.8" y="43.4" class="level1">/</text>
          <text x="12.8" y="20.6" class="level2">?</text>
          <text x="38.0" y="43.4" class="level3">?</text>
          <g class="level4 diacritic deadKey">
            <text x="38.0" y="20.6" class="dk_mark">◌</text>
            <text x="38.0" y="20.6" class="dk_char">˘</text>
          </g>
        </g>
      </g>
    </g>
  </g>

  <g class="row_AA" text-anchor="middle">
    <g id="Space" class="homeKey" transform="translate(225)">
      <rect width="367" height="52" class="ansi" rx="5" ry="5"/>
      <rect width="292" height="52" class="ol60" rx="5" ry="5"/>
      <rect width="232" height="52" class="ol40" rx="5" ry="5"/>
      <g class="key" text-anchor="start">
        <text x="10" y="43.4" class="level1">espace</text>
        <text x="10" y="20.6" class="level2">insécable fine</text>
      </g>
      <g class="key level3" text-anchor="end">
        <text x="357" y="43.4" class="ansi">espace</text>
        <text x="282" y="43.4" class="ol60">espace</text>
        <text x="222" y="43.4" class="ol40">espace</text>
      </g>
      <g class="key level4" text-anchor="end">
        <text x="357" y="20.6" class="ansi">espace insécable</text>
        <text x="282" y="20.6" class="ol60">insécable</text>
        <text x="222" y="20.6" class="ol40">insécable</text>
      </g>
      <g class="key level5" text-anchor="end">
        <text x="357" y="43.4" class="ansi">apostrophe typo (’)</text>
        <text x="282" y="43.4" class="ol60">apostrophe (’)</text>
        <text x="222" y="43.4" class="ol40">apostrophe (’)</text>
      </g>
    </g>
  </g>
</svg>
