<svg xmlns="http://www.w3.org/2000/svg" viewBox="0 0 836 300">
  <style><![CDATA[ {{ .theme }} {{ .kb3x6 }} ]]></style>

  <g id="left">
    <g class="col_L specialKey">
      <g transform="translate(0 0)">
        <rect width="52" height="52" rx="5" ry="5"/>
      </g>
      <g transform="translate(0 60)">
        <rect width="52" height="52" rx="5" ry="5"/>
      </g>
      <g transform="translate(0 120)">
        <rect width="52" height="52" rx="5" ry="5"/>
      </g>
    </g>

    <g class="col_1 letterKey">
      <g transform="translate(0 0)">
        <rect width="52" height="52" rx="5" ry="5"/>
      </g>
      <g transform="translate(0 60)" class="homeKey">
        <rect width="52" height="52" rx="5" ry="5"/>
      </g>
      <g transform="translate(0 120)">
        <rect width="52" height="52" rx="5" ry="5"/>
      </g>
    </g>

    <g class="col_2 letterKey">
      <g transform="translate(0 0)">
        <rect width="52" height="52" rx="5" ry="5"/>
      </g>
      <g transform="translate(0 60)" class="homeKey">
        <rect width="52" height="52" rx="5" ry="5"/>
      </g>
      <g transform="translate(0 120)">
        <rect width="52" height="52" rx="5" ry="5"/>
      </g>
    </g>

    <g class="col_3 letterKey">
      <g transform="translate(0 0)">
        <rect width="52" height="52" rx="5" ry="5"/>
      </g>
      <g transform="translate(0 60)" class="homeKey">
        <rect width="52" height="52" rx="5" ry="5"/>
      </g>
      <g transform="translate(0 120)">
        <rect width="52" height="52" rx="5" ry="5"/>
      </g>
    </g>

    <g class="col_4 letterKey">
      <g transform="translate(0 0)">
        <rect width="52" height="52" rx="5" ry="5"/>
      </g>
      <g transform="translate(0 60)" class="homeKey">
        <rect width="52" height="52" rx="5" ry="5"/>
      </g>
      <g transform="translate(0 120)">
        <rect width="52" height="52" rx="5" ry="5"/>
      </g>
    </g>

    <g class="col_5 letterKey">
      <g transform="translate(0 0)">
        <rect width="52" height="52" rx="5" ry="5"/>
      </g>
      <g transform="translate(0 60)">
        <rect width="52" height="52" rx="5" ry="5"/>
      </g>
      <g transform="translate(0 120)">
        <rect width="52" height="52" rx="5" ry="5"/>
      </g>
    </g>

    <g class="thb_3 specialKey">
      <g>
        <rect width="52" height="52" rx="5" ry="5"/>
      </g>
    </g>
    <g class="thb_4 homeKey">
      <g>
        <rect width="52" height="52" rx="5" ry="5"/>
      </g>
    </g>
    <g class="thb_5 specialKey">
      <g>
        <rect width="52" height="82" rx="5" ry="5"/>
      </g>
    </g>
  </g>

  <g id="right">
    <g class="col_6 letterKey">
      <g transform="translate(0 0)">
        <rect width="52" height="52" rx="5" ry="5"/>
      </g>
      <g transform="translate(0 60)">
        <rect width="52" height="52" rx="5" ry="5"/>
      </g>
      <g transform="translate(0 120)">
        <rect width="52" height="52" rx="5" ry="5"/>
      </g>
    </g>

    <g class="col_7 letterKey">
      <g transform="translate(0 0)">
        <rect width="52" height="52" rx="5" ry="5"/>
      </g>
      <g transform="translate(0 60)" class="homeKey">
        <rect width="52" height="52" rx="5" ry="5"/>
      </g>
      <g transform="translate(0 120)">
        <rect width="52" height="52" rx="5" ry="5"/>
      </g>
    </g>

    <g class="col_8 letterKey">
      <g transform="translate(0 0)">
        <rect width="52" height="52" rx="5" ry="5"/>
      </g>
      <g transform="translate(0 60)" class="homeKey">
        <rect width="52" height="52" rx="5" ry="5"/>
      </g>
      <g transform="translate(0 120)">
        <rect width="52" height="52" rx="5" ry="5"/>
      </g>
    </g>

    <g class="col_9 letterKey">
      <g transform="translate(0 0)">
        <rect width="52" height="52" rx="5" ry="5"/>
      </g>
      <g transform="translate(0 60)" class="homeKey">
        <rect width="52" height="52" rx="5" ry="5"/>
      </g>
      <g transform="translate(0 120)">
        <rect width="52" height="52" rx="5" ry="5"/>
      </g>
    </g>

    <g class="col_0 letterKey">
      <g transform="translate(0 0)">
        <rect width="52" height="52" rx="5" ry="5"/>
      </g>
      <g transform="translate(0 60)" class="homeKey">
        <rect width="52" height="52" rx="5" ry="5"/>
      </g>
      <g transform="translate(0 120)">
        <rect width="52" height="52" rx="5" ry="5"/>
      </g>
    </g>

    <g class="col_R specialKey">
      <g transform="translate(0 0)">
        <rect width="52" height="52" rx="5" ry="5"/>
      </g>
      <g transform="translate(0 60)">
        <rect width="52" height="52" rx="5" ry="5"/>
      </g>
      <g transform="translate(0 120)">
        <rect width="52" height="52" rx="5" ry="5"/>
      </g>
    </g>

    <g class="thb_6 specialKey" id="nav">
      <g>
        <rect width="52" height="82" rx="5" ry="5"/>
      </g>
    </g>
    <g class="thb_7 homeKey">
      <g>
        <rect width="52" height="52" rx="5" ry="5"/>
      </g>
    </g>
    <g class="thb_8 specialKey" id="sym">
      <g>
        <rect width="52" height="52" rx="5" ry="5"/>
      </g>
    </g>
  </g>

</svg>
