<svg xmlns="http://www.w3.org/2000/svg" viewBox="0 0 836 340">
  <style><![CDATA[ {{ .style }} {{ .kb4x6 }} ]]></style>

  {{ .defs }}

  <g id="left">
    <g class="col_L specialKey">
      <g transform="translate(0 -60)">
        <rect width="52" height="52" rx="5" ry="5"/>
        <use x="26" y="30" href="#glyph_escape"/>
      </g>
      <g transform="translate(0 0)">
        <rect width="52" height="52" rx="5" ry="5"/>
        <use x="26" y="30" href="#glyph_tab"/>
      </g>
      <g transform="translate(0 60)">
        <rect width="52" height="52" rx="5" ry="5"/>
        <use x="26" y="30" href="#glyph_caps"/>
      </g>
      <g transform="translate(0 120)">
        <rect width="52" height="52" rx="5" ry="5"/>
        <use x="26" y="30" href="#glyph_shift"/>
      </g>
    </g>

    <g class="col_1">
      <g transform="translate(0 -60)">
        <rect width="52" height="52" rx="5" ry="5"/>
        <text x="12.8" y="43.4" class="level1">1</text>
        <text x="12.8" y="20.6" class="level2">€</text>
      </g>
      <g transform="translate(0 0)">
        <rect width="52" height="52" rx="5" ry="5"/>
        <text x="12.8" y="20.6" class="level2">Q</text>
        <text x="38.0" y="20.6" class="sym">^</text>
        <use  x="38.0" y="43.4" class="nav" href="#glyph_escape"/>
      </g>
      <g transform="translate(0 60)">
        <rect width="52" height="52" rx="5" ry="5"/>
        <text x="12.8" y="20.6" class="level2">A</text>
        <text x="38.0" y="20.6" class="sym">{</text>
        <text x="38.0" y="43.4" class="nav shortcut">all</text>
      </g>
      <g transform="translate(0 120)">
        <rect width="52" height="52" rx="5" ry="5"/>
        <text x="12.8" y="20.6" class="level2">Z</text>
        <text x="38.0" y="20.6" class="sym">~</text>
        <text x="38.0" y="43.4" class="nav shortcut">cut</text>
      </g>
    </g>

    <g class="col_2">
      <g transform="translate(0 -60)">
        <rect width="52" height="52" rx="5" ry="5"/>
        <text x="12.8" y="43.4" class="level1">2</text>
        <text x="12.8" y="20.6" class="level2">«</text>
      </g>
      <g transform="translate(0 0)">
        <rect width="52" height="52" rx="5" ry="5"/>
        <text x="12.8" y="20.6" class="level2">C</text>
        <text x="38.0" y="20.6" class="sym">&lt;</text>
        <use  x="38.0" y="43.4" class="nav" href="#glyph_home"/>
      </g>
      <g transform="translate(0 60)">
        <rect width="52" height="52" rx="5" ry="5"/>
        <text x="12.8" y="20.6" class="level2">S</text>
        <text x="38.0" y="20.6" class="sym">(</text>
        <use  x="38.0" y="43.4" class="nav" href="#glyph_left"/>
      </g>
      <g transform="translate(0 120)">
        <rect width="52" height="52" rx="5" ry="5"/>
        <text x="12.8" y="20.6" class="level2">X</text>
        <text x="38.0" y="20.6" class="sym">[</text>
        <text x="38.0" y="43.4" class="nav shortcut">cut</text>
      </g>
    </g>

    <g class="col_3">
      <g transform="translate(0 -60)">
        <rect width="52" height="52" rx="5" ry="5"/>
        <text x="12.8" y="43.4" class="level1">3</text>
        <text x="12.8" y="20.6" class="level2">»</text>
      </g>
      <g transform="translate(0 0)">
        <rect width="52" height="52" rx="5" ry="5"/>
        <text x="12.8" y="20.6" class="level2">O</text>
        <text x="38.0" y="20.6" class="sym">&gt;</text>
        <use  x="38.0" y="43.4" class="nav" href="#glyph_up"/>
      </g>
      <g transform="translate(0 60)">
        <rect width="52" height="52" rx="5" ry="5"/>
        <text x="12.8" y="20.6" class="level2">E</text>
        <text x="38.0" y="20.6" class="sym">)</text>
        <use  x="38.0" y="43.4" class="nav" href="#glyph_down"/>
      </g>
      <g transform="translate(0 120)">
        <rect width="52" height="52" rx="5" ry="5"/>
        <text x="12.8" y="43.4" class="level1">-</text>
        <text x="12.8" y="20.6" class="level2">?</text>
        <text x="38.0" y="20.6" class="sym">]</text>
        <text x="38.0" y="43.4" class="nav shortcut">copy</text>
      </g>
    </g>

    <g class="col_4">
      <g transform="translate(0 -60)">
        <rect width="52" height="52" rx="5" ry="5"/>
        <text x="12.8" y="43.4" class="level1">4</text>
        <text x="12.8" y="20.6" class="level2">$</text>
      </g>
      <g transform="translate(0 0)">
        <rect width="52" height="52" rx="5" ry="5"/>
        <text x="12.8" y="20.6" class="level2">P</text>
        <text x="38.0" y="20.6" class="sym">$</text>
        <use  x="38.0" y="43.4" class="nav" href="#glyph_end"/>
      </g>
      <g transform="translate(0 60)">
        <rect width="52" height="52" rx="5" ry="5"/>
        <text x="12.8" y="20.6" class="level2">N</text>
        <text x="38.0" y="20.6" class="sym">}</text>
        <use  x="38.0" y="43.4" class="nav" href="#glyph_right"/>
      </g>
      <g transform="translate(0 120)">
        <rect width="52" height="52" rx="5" ry="5"/>
        <text x="12.8" y="20.6" class="level2">V</text>
        <text x="38.0" y="20.6" class="sym">_</text>
        <text x="38.0" y="43.4" class="nav shortcut">paste</text>
      </g>
    </g>

    <g class="col_5">
      <g transform="translate(0 -60)">
        <rect width="52" height="52" rx="5" ry="5"/>
        <text x="12.8" y="43.4" class="level1">5</text>
        <text x="12.8" y="20.6" class="level2">%</text>
      </g>
      <g transform="translate(0 0)">
        <rect width="52" height="52" rx="5" ry="5"/>
        <text x="12.8" y="20.6" class="level2">W</text>
        <text x="38.0" y="20.6" class="sym">%</text>
        <use  x="38.0" y="43.4" class="nav" href="#glyph_pgup"/>
      </g>
      <g transform="translate(0 60)">
        <rect width="52" height="52" rx="5" ry="5"/>
        <text x="12.8" y="20.6" class="level2">F</text>
        <text x="38.0" y="20.6" class="sym">=</text>
        <use  x="38.0" y="43.4" class="nav" href="#glyph_pgdown"/>
      </g>
      <g transform="translate(0 120)">
        <rect width="52" height="52" rx="5" ry="5"/>
        <text x="12.8" y="20.6" class="level2">B</text>
        <text x="38.0" y="20.6" class="sym">#</text>
        <text x="38.0" y="43.4" class="nav shortcut">redo</text>
      </g>
    </g>

    <g class="thb_1 specialKey">
      <g>
        <rect width="52" height="52" rx="5" ry="5"/>
        <text x="26" y="30">Cmd</text>
      </g>
    </g>
    <g class="thb_2 specialKey">
      <g>
        <rect width="52" height="52" rx="5" ry="5"/>
        <text x="26" y="30">Alt</text>
      </g>
    </g>
    <g class="thb_3 specialKey nav">
      <g>
        <rect class="mod" width="52" height="52" rx="5" ry="5"/>
        <text class="mod" x="26" y="30">Nav</text>
      </g>
    </g>
    <g class="thb_4 specialKey">
      <g>
        <rect width="52" height="52" rx="5" ry="5"/>
        <text x="26" y="30">⎵</text>
      </g>
    </g>
    <g class="thb_5 specialKey">
      <g>
        <rect width="52" height="82" rx="5" ry="5"/>
        <text x="26" y="45">Ctrl</text>
      </g>
    </g>
  </g>

  <g id="right">
    <g class="col_6">
      <g transform="translate(0 -60)">
        <rect width="52" height="52" rx="5" ry="5"/>
        <text x="12.8" y="43.4" class="level1">6</text>
        <text x="12.8" y="20.6" class="level2">^</text>
      </g>
      <g transform="translate(0 0)">
        <rect width="52" height="52" rx="5" ry="5"/>
        <text x="12.8" y="20.6" class="level2">J</text>
        <text x="38.0" y="20.6" class="sym">@</text>
        <text x="38.0" y="43.4" class="nav"></text>
      </g>
      <g transform="translate(0 60)">
        <rect width="52" height="52" rx="5" ry="5"/>
        <text x="12.8" y="20.6" class="level2">L</text>
        <text x="38.0" y="20.6" class="sym">\</text>
        <text x="38.0" y="43.4" class="nav">-</text>
      </g>
      <g transform="translate(0 120)">
        <rect width="52" height="52" rx="5" ry="5"/>
        <text x="12.8" y="43.4" class="level1">.</text>
        <text x="12.8" y="20.6" class="level2">:</text>
        <text x="38.0" y="20.6" class="sym">|</text>
        <text x="38.0" y="43.4" class="nav">,</text>
      </g>
    </g>

    <g class="col_7">
      <g transform="translate(0 -60)">
        <rect width="52" height="52" rx="5" ry="5"/>
        <text x="12.8" y="43.4" class="level1">7</text>
        <text x="12.8" y="20.6" class="level2">&amp;</text>
      </g>
      <g transform="translate(0 0)">
        <rect width="52" height="52" rx="5" ry="5"/>
        <text x="12.8" y="20.6" class="level2">M</text>
        <text x="38.0" y="20.6" class="sym">&amp;</text>
        <text x="38.0" y="43.4" class="nav">7</text>
      </g>
      <g transform="translate(0 60)">
        <rect width="52" height="52" rx="5" ry="5"/>
        <text x="12.8" y="20.6" class="level2">R</text>
        <text x="38.0" y="20.6" class="sym">+</text>
        <text x="38.0" y="43.4" class="nav">4</text>
      </g>
      <g transform="translate(0 120)">
        <rect width="52" height="52" rx="5" ry="5"/>
        <text x="12.8" y="20.6" class="level2">H</text>
        <text x="38.0" y="20.6" class="sym">!</text>
        <text x="38.0" y="43.4" class="nav">1</text>
      </g>
    </g>

    <g class="col_8">
      <g transform="translate(0 -60)">
        <rect width="52" height="52" rx="5" ry="5"/>
        <text x="12.8" y="43.4" class="level1">8</text>
        <text x="12.8" y="20.6" class="level2">*</text>
      </g>
      <g transform="translate(0 0)">
        <rect width="52" height="52" rx="5" ry="5"/>
        <text x="12.8" y="20.6" class="level2">D</text>
        <text x="38.0" y="20.6" class="sym">*</text>
        <text x="38.0" y="43.4" class="nav">8</text>
      </g>
      <g transform="translate(0 60)">
        <rect width="52" height="52" rx="5" ry="5"/>
        <text x="12.8" y="20.6" class="level2">T</text>
        <text x="38.0" y="20.6" class="sym">-</text>
        <text x="38.0" y="43.4" class="nav">5</text>
      </g>
      <g transform="translate(0 120)">
        <rect width="52" height="52" rx="5" ry="5"/>
        <text x="12.8" y="20.6" class="level2">G</text>
        <text x="38.0" y="20.6" class="sym">;</text>
        <text x="38.0" y="43.4" class="nav">2</text>
      </g>
    </g>

    <g class="col_9">
      <g transform="translate(0 -60)">
        <rect width="52" height="52" rx="5" ry="5"/>
        <text x="12.8" y="43.4" class="level1">9</text>
        <text x="12.8" y="20.6" class="level2">#</text>
      </g>
      <g transform="translate(0 0)">
        <rect width="52" height="52" rx="5" ry="5"/>
        <text x="12.8" y="43.4" class="level1">★</text>
        <text x="12.8" y="20.6" class="level2">!</text>
        <text x="38.0" y="20.6" class="sym">'</text>
        <text x="38.0" y="43.4" class="nav">9</text>
      </g>
      <g transform="translate(0 60)">
        <rect width="52" height="52" rx="5" ry="5"/>
        <text x="12.8" y="20.6" class="level2">I</text>
        <text x="38.0" y="20.6" class="sym">/</text>
        <text x="38.0" y="43.4" class="nav">6</text>
      </g>
      <g transform="translate(0 120)">
        <rect width="52" height="52" rx="5" ry="5"/>
        <text x="12.8" y="43.4" class="level1">,</text>
        <text x="12.8" y="20.6" class="level2">;</text>
        <text x="38.0" y="20.6" class="sym">:</text>
        <text x="38.0" y="43.4" class="nav">3</text>
      </g>
    </g>

    <g class="col_0">
      <g transform="translate(0 -60)">
        <rect width="52" height="52" rx="5" ry="5"/>
        <text x="12.8" y="43.4" class="level1">0</text>
        <text x="12.8" y="20.6" class="level2">@</text>
      </g>
      <g transform="translate(0 0)">
        <rect width="52" height="52" rx="5" ry="5"/>
        <text x="12.8" y="20.6" class="level2">Y</text>
        <text x="38.0" y="20.6" class="sym">`</text>
        <text x="38.0" y="43.4" class="nav">/</text>
      </g>
      <g transform="translate(0 60)">
        <rect width="52" height="52" rx="5" ry="5"/>
        <text x="12.8" y="20.6" class="level2">U</text>
        <text x="38.0" y="20.6" class="sym">"</text>
        <text x="38.0" y="43.4" class="nav">0</text>
      </g>
      <g transform="translate(0 120)">
        <rect width="52" height="52" rx="5" ry="5"/>
        <text x="12.8" y="20.6" class="level2">K</text>
        <text x="38.0" y="20.6" class="sym">?</text>
        <text x="38.0" y="43.4" class="nav">.</text>
      </g>
    </g>

    <g class="col_R specialKey">
      <g transform="translate(0 -60)">
        <rect width="52" height="52" rx="5" ry="5"/>
        <use x="26" y="30" href="#glyph_delete"/>
      </g>
      <g transform="translate(0 0)">
        <rect width="52" height="52" rx="5" ry="5"/>
        <use x="26" y="30" href="#glyph_backspace"/>
      </g>
      <g transform="translate(0 60)">
        <rect width="52" height="52" rx="5" ry="5"/>
        <use x="26" y="30" href="#glyph_return"/>
      </g>
      <g transform="translate(0 120)">
        <rect width="52" height="52" rx="5" ry="5"/>
        <use x="26" y="30" href="#glyph_shift"/>
      </g>
    </g>

    <g class="thb_6 specialKey">
      <g>
        <rect width="52" height="82" rx="5" ry="5"/>
        <text x="26" y="45">Ctrl</text>
      </g>
    </g>
    <g class="thb_7 specialKey">
      <g>
        <rect width="52" height="52" rx="5" ry="5"/>
        <text x="26" y="30">⎵</text>
      </g>
    </g>
    <g class="thb_8 specialKey sym">
      <g>
        <rect class="mod" width="52" height="52" rx="5" ry="5"/>
        <text class="mod" x="26" y="30">AltGr</text>
      </g>
    </g>
    <g class="thb_9 specialKey">
      <g>
        <rect width="52" height="52" rx="5" ry="5"/>
        <text x="26" y="30">Alt</text>
      </g>
    </g>
    <g class="thb_0 specialKey">
      <g>
        <rect width="52" height="52" rx="5" ry="5"/>
        <text x="26" y="30">Cmd</text>
      </g>
    </g>
  </g>

</svg>
